<svg width="17" height="70" viewBox="0 0 17 70" fill="none" xmlns="http://www.w3.org/2000/svg">
<g id="ep:arrow-right-bold" opacity="0.5">
<path d="M0 4C0 1.79086 1.79086 0 4 0H17V70H4C1.79086 70 0 68.2091 0 66V4Z" fill="#A5A5A5"/>
<path id="Vector" d="M4.3824 20.6603C4.13755 21.0833 4 21.6569 4 22.2549C4 22.853 4.13755 23.4265 4.3824 23.8495L10.8474 35.0136L4.3824 46.1778C4.14449 46.6031 4.01284 47.1729 4.01582 47.7642C4.0188 48.3556 4.15615 48.9212 4.39831 49.3394C4.64046 49.7576 4.96804 49.9948 5.31049 49.9999C5.65294 50.0051 5.98285 49.7777 6.22918 49.3669L13.6176 36.6082C13.8625 36.1852 14 35.6117 14 35.0136C14 34.4156 13.8625 33.842 13.6176 33.4191L6.22918 20.6603C5.98425 20.2375 5.65211 20 5.30579 20C4.95947 20 4.62732 20.2375 4.3824 20.6603Z" fill="white"/>
</g>
</svg>
