<svg width="114" height="124" viewBox="0 0 114 124" fill="none" xmlns="http://www.w3.org/2000/svg">
<path id="Vector" d="M112.413 111.073C111.514 110.138 110.216 109.629 109.114 109.774C106.238 110.145 103.546 111.045 100.876 112.521C99.8821 113.074 98.9462 113.717 98.0429 114.341C97.6598 114.605 97.266 114.879 96.8649 115.146C96.7746 114.814 96.6879 114.482 96.6011 114.15C96.4132 113.413 96.2145 112.655 95.9652 111.9C94.7764 108.329 93.1034 104.809 90.9932 101.429C88.7168 97.793 85.9923 94.5072 82.8956 91.6583C82.78 91.55 82.6608 91.4489 82.5415 91.3478C84.1278 91.4742 86.0935 91.6439 88.0628 91.8425C90.7908 92.1205 93.4973 92.4382 96.0953 92.7885C96.9336 92.9004 97.7538 92.6477 98.285 92.1024C98.733 91.6439 98.9282 91.0445 98.8306 90.4162C98.5885 88.8383 98.3211 87.2351 98.0682 85.6825L97.8947 84.6318C97.7502 83.7435 97.602 82.8516 97.4539 81.9634C97.219 80.5371 96.9805 79.1145 96.7493 77.6882C96.5144 76.2367 96.2832 74.7888 96.0519 73.3373C95.8387 71.9977 95.6255 70.6545 95.4087 69.3149C95.2425 68.2894 95.0727 67.2639 94.8992 66.2349C94.6572 64.7833 94.4151 63.3318 94.1874 61.8803C93.8478 59.7174 93.5189 57.5582 93.1901 55.399C92.9733 53.9691 92.7529 52.5392 92.5325 51.1094C92.3048 49.6325 92.07 48.1558 91.8387 46.6789C91.5605 44.9241 91.2859 43.1693 91.0149 41.4144C90.4548 37.7639 89.902 34.0774 89.3347 30.3041C88.9336 27.6249 88.5361 24.9493 88.1386 22.2737C88.1206 22.151 88.1061 22.0318 88.088 21.9091C88.0411 21.5588 87.9941 21.1977 87.8965 20.8294C87.5605 19.5693 86.4982 18.6232 85.3057 18.5294C83.64 18.3958 81.8658 18.2838 79.5533 18.1611C77.1143 18.0311 75.0691 17.9516 73.1287 17.9083C73.0962 17.4678 73.0637 17.0237 73.0275 16.5832C72.9444 15.5252 72.8577 14.4275 72.818 13.3624C72.7493 11.5859 72.4422 9.94296 71.911 8.47337C70.8053 5.41866 69.0673 3.10416 66.7511 1.59485C63.8713 -0.279138 60.8938 -0.503006 57.8948 0.930471C57.4792 1.12906 57.2913 1.14712 56.9842 1.00991C55.1269 0.193872 53.1034 0.128879 50.9679 0.811314C46.8342 2.14369 43.1884 7.18794 42.668 12.3044C42.509 13.9365 42.4729 15.5794 42.4404 17.1717C42.4259 17.818 42.4115 18.468 42.3898 19.1179C42.3898 19.1251 42.3862 19.136 42.3826 19.1432C41.4214 19.2335 40.3338 19.3346 39.257 19.4573C37.472 19.6632 35.6689 19.9051 33.9743 20.1398C31.893 20.425 30.0032 20.7031 28.2001 20.9883L27.846 21.0461C27.3654 21.1255 26.8632 21.205 26.3898 21.2519C25.0998 21.3819 23.9074 22.6745 23.7304 24.1333C23.5605 25.5632 23.3618 27.2205 23.1848 28.8417C23.08 29.8058 22.9788 30.7699 22.8776 31.734C22.762 32.8244 22.65 33.9149 22.5271 35.0053C22.379 36.3269 22.2236 37.652 22.0718 38.9772C21.9201 40.2698 21.7719 41.5661 21.6274 42.8587C21.4865 44.1297 21.3528 45.3971 21.2191 46.6681C21.1287 47.5383 21.0348 48.4085 20.9408 49.2823C20.818 50.4233 20.6915 51.5643 20.5651 52.7053C20.4205 54.0088 20.276 55.3087 20.1387 56.6086C20.0411 57.5149 19.9472 58.4248 19.8532 59.3311C19.7448 60.389 19.6364 61.4506 19.5172 62.5122C19.3654 63.8987 19.21 65.2816 19.0547 66.6682C18.9029 68.015 18.7511 69.3618 18.603 70.705C18.4874 71.7485 18.379 72.792 18.2706 73.8355C18.1658 74.8321 18.0646 75.8287 17.9526 76.8289C17.8261 77.9843 17.696 79.1434 17.566 80.2988C17.407 81.7143 17.2444 83.1333 17.0926 84.5487C17.0023 85.3972 16.9192 86.2422 16.8397 87.0871C16.7385 88.1595 16.6301 89.268 16.5036 90.3584C16.3736 91.4958 16.753 92.1313 17.0962 92.4671C17.631 92.9871 18.4368 93.1785 19.4919 93.0304C21.7358 92.7163 23.7846 92.4599 25.7611 92.2433C29.7105 91.8136 33.8767 91.4561 38.1369 91.1853L38.379 91.1709C38.7728 91.1456 39.1811 91.1239 39.5931 91.0589C39.6003 91.0589 39.6075 91.0553 39.6147 91.0553C39.6509 92.8932 39.64 94.6516 39.2389 96.049C38.6897 98.118 37.9092 99.6634 36.7096 101.064C34.762 103.339 32.2001 104.56 29.0962 104.693C26.0104 104.823 23.6003 103.697 22.1224 102.729C20.005 101.342 18.4187 99.5804 17.2661 97.3381C17.0131 96.847 16.7385 96.3234 16.4386 95.8071C16.1459 95.3052 15.5244 94.713 14.1983 94.7889C13.136 94.843 12.2326 95.3485 11.51 96.2909C10.7873 97.2334 10.0574 98.1758 9.32749 99.1218C8.52171 100.162 7.71231 101.205 6.91015 102.256L5.01674 104.733C3.61837 106.564 2.21277 108.405 0.789102 110.25C0.113403 111.128 -0.139533 112.023 0.0736557 112.774C0.239871 113.355 0.680701 113.807 1.31665 114.045C2.64276 114.54 4.44583 113.843 5.51177 112.42C5.63463 112.254 5.76471 112.092 5.89479 111.929C5.99958 111.796 6.10798 111.662 6.20915 111.528C7.80987 109.456 9.45757 107.3 11.2462 104.942C11.8858 104.097 12.5253 103.26 13.1649 102.422C13.4106 102.711 13.6382 103.018 13.8767 103.339C14.332 103.953 14.8017 104.585 15.4196 105.134C18.1405 107.564 21.1504 109.051 24.6265 109.676C27.2751 110.156 30.0429 110.044 32.8469 109.347C36.4892 108.438 41.2299 105.498 43.4124 102.801C45.0998 100.718 46.0537 98.7788 46.556 97.5186C46.7836 96.9445 46.8631 96.6592 46.9824 96.2079C47.6256 93.7453 47.6653 92.005 47.5641 90.5318C53.1901 90.4812 55.2281 90.4415 57.1612 90.4234C59.6256 90.4018 61.8225 90.4054 63.8749 90.4415L64.8252 90.4559C67.1775 90.4921 69.4033 90.5245 71.6978 90.7917C71.8279 90.817 72.2218 91.077 72.6012 91.4236L72.6264 91.4453C75.6075 93.9512 76.5108 94.7816 77.1106 95.3305C77.3491 95.5507 77.5442 95.7277 77.7972 95.9515C78.2777 96.3704 79.0474 97.1142 79.6653 97.71C79.864 97.905 80.0519 98.0819 80.2073 98.2299C80.6915 98.6921 81.1829 99.1398 81.6599 99.5695C84.6409 102.274 87.4593 104.827 90.1657 112.341C91.1377 115.215 91.7484 118.082 91.976 120.859C92.0483 121.725 92.4674 122.483 93.1937 123.058C93.9923 123.686 94.8703 124 95.6797 124C96.4891 124 97.2299 123.686 97.7574 123.061C98.9932 121.584 100.41 120.277 101.971 119.176C104.944 117.071 108.099 115.789 111.611 115.251C112.471 115.121 113.103 114.641 113.342 113.933C113.642 113.052 113.291 111.987 112.413 111.073ZM41.1143 24.5594C41.1143 24.5341 41.1143 24.5124 41.1143 24.4908C41.1215 24.4908 41.1251 24.4908 41.1323 24.4871C41.3889 24.4619 41.6491 24.4438 41.9056 24.4221C42.2091 24.4005 42.509 24.3788 42.8126 24.3463L43.593 24.2633C44.7313 24.1405 45.9056 24.0177 47.0583 23.9166C47.8857 23.8444 48.7276 23.7939 49.5406 23.7433L50.4006 23.6892C50.6138 23.6747 50.8595 23.6567 51.1197 23.6133C51.1197 24.2885 51.1197 24.9674 51.1197 25.6426C51.1197 26.5778 51.1197 27.5166 51.1161 28.4518C51.1125 29.2389 51.2064 30.1308 51.9435 30.8024C52.6373 31.4343 53.4937 31.6076 54.3537 31.2862C55.2678 30.9468 55.8496 30.2283 56.0845 29.1523L56.0989 29.0837L56.0845 28.4373C56.0736 27.8993 56.0628 27.318 56.0483 26.7403L56.0339 25.982C56.0158 25.0938 55.9977 24.2055 55.9724 23.3173C57.4864 23.2559 59.4232 23.18 61.3491 23.1439C63.4702 23.1006 65.6779 23.0934 68.1025 23.115C68.2904 23.1187 68.4819 23.1078 68.6662 23.0934C68.724 24.0863 68.7891 25.0757 68.8541 26.0687C68.8975 26.7619 68.9444 27.4516 68.9878 28.1412C69.0492 29.1848 69.6165 30.1344 70.4657 30.6182C71.1739 31.019 71.9797 31.0479 72.677 30.6868C73.5948 30.2102 74.0537 29.3472 73.9598 28.2568L73.8333 26.7547C73.7321 25.574 73.6346 24.3896 73.5334 23.2089C76.1892 23.2884 78.7656 23.4003 81.1901 23.5447C81.5045 23.5628 81.8188 23.5808 82.1332 23.5953C82.6029 23.6206 83.0727 23.6458 83.5424 23.6747C83.5461 23.6964 83.5497 23.7253 83.5533 23.7542C83.6364 24.3644 83.7195 24.971 83.799 25.5812C83.8857 26.2167 83.9688 26.8522 84.0555 27.4877C84.1856 28.4373 84.3193 29.387 84.4494 30.3366C84.565 31.1815 84.6842 32.0228 84.7999 32.8677L85.0203 34.4637C85.4431 37.5329 85.8658 40.6056 86.2994 43.6748C86.4982 45.0758 86.7041 46.4767 86.9101 47.8813C87.0474 48.8093 87.1811 49.7373 87.3148 50.6652L87.7954 54.0196C88.0555 55.8395 88.3193 57.6629 88.5831 59.4827C88.7926 60.9307 89.0095 62.3786 89.2226 63.8301L89.5731 66.2132C90.238 70.7303 90.9101 75.2474 91.5858 79.7717L91.9616 82.2703C92.1856 83.758 92.406 85.2456 92.6301 86.7368C92.6373 86.7838 92.6481 86.8343 92.6626 86.9029C92.6698 86.9318 92.6734 86.9607 92.6806 86.9896C92.6481 86.986 92.6156 86.9824 92.5867 86.9788L91.4521 86.8524C90.0031 86.6899 88.5072 86.5238 87.0329 86.383C85.1251 86.1988 83.0691 86.0219 80.7457 85.8486C77.5442 85.6067 74.6861 85.4333 72.0049 85.3214C68.883 85.1878 65.6888 85.1156 62.238 85.0939C61.7502 85.0903 61.2624 85.0903 60.7818 85.0903C58.827 85.0903 56.9408 85.112 55.4341 85.1301C52.8722 85.1625 50.1188 85.2131 47.322 85.3323C45.313 85.4189 43.2895 85.5561 41.2227 85.7005L40.6951 85.7367C39.8207 85.798 38.9499 85.8594 38.0754 85.9244C38.1874 83.8627 38.2886 81.8009 38.3934 79.7392L38.5307 77.0166C38.6247 75.1643 38.7186 73.312 38.8089 71.4633C38.8848 69.8998 38.9571 68.3327 39.0257 66.7693L39.2389 62.1475C39.3184 60.4468 39.3979 58.7425 39.4846 57.0419C39.5461 55.8611 39.6075 54.6768 39.6725 53.4925C39.7448 52.1384 39.8171 50.788 39.8857 49.434C39.9363 48.3941 39.9833 47.3542 40.0267 46.3143C40.07 45.3249 40.1134 44.3356 40.1603 43.3462C40.1965 42.606 40.2398 41.8658 40.2832 41.1256C40.3229 40.454 40.3627 39.7824 40.3952 39.1108C40.4422 38.1539 40.4892 37.1971 40.5325 36.2402C40.5831 35.1534 40.6337 34.0665 40.6915 32.9797C40.7746 31.3476 40.865 29.7119 40.9553 28.0762L41.1107 25.2057C41.1251 25.0179 41.1251 24.8013 41.1143 24.5594ZM55.8677 13.3226C55.8677 12.8171 55.8966 12.2972 55.9255 11.7917C55.9399 11.5606 55.9508 11.3295 55.9616 11.0984C56.1965 9.82019 56.7204 8.65752 57.5587 7.55263C58.7836 9.10526 59.3798 10.6651 59.4232 12.4488C59.4557 13.7632 59.5208 15.0955 59.5858 16.3846C59.6111 16.9009 59.6364 17.4136 59.6581 17.93C58.4259 17.9661 57.1649 18.0203 55.9146 18.0889C55.9074 17.4895 55.9002 16.8901 55.8893 16.2871C55.8821 15.3158 55.8677 14.3084 55.8677 13.3226ZM64.453 17.818L64.4494 17.7639C64.3988 16.511 64.3374 15.2147 64.2579 13.9148C64.247 13.709 64.2362 13.5068 64.2218 13.301C64.1784 12.4741 64.1314 11.622 64.0158 10.7807C63.752 8.84528 63.0655 7.00018 61.9815 5.30673C62.1983 5.31034 62.4042 5.31756 62.5849 5.32478L62.7331 5.32839C65.808 6.25275 67.8929 9.21719 68.0592 12.9002C68.117 14.2759 68.2145 15.6696 68.3085 17.0201L68.3627 17.8144C67.2353 17.8036 66.0248 17.8036 64.453 17.818ZM51.9255 8.14479C51.3509 9.81658 51.0908 11.6797 51.1088 14.0051C51.1197 15.4566 51.1305 16.9081 51.145 18.3597C49.949 18.4427 48.6481 18.5438 47.1739 18.6666C47.1956 17.8758 47.2064 17.0851 47.2173 16.2907C47.2281 15.5758 47.2389 14.8608 47.257 14.1459C47.2715 13.5934 47.3004 13.0229 47.3293 12.4741C47.3437 12.2322 47.3546 11.9903 47.3654 11.7483C47.9797 8.95722 49.9598 6.538 52.1892 5.85917C52.4603 5.77612 52.7421 5.72918 53.0384 5.68586C52.612 6.41523 52.2434 7.22043 51.9255 8.14479ZM32.4856 85.5345C32.4675 85.8233 32.4458 86.1086 32.4277 86.3938C30.1441 86.5707 27.9002 86.7766 25.7539 87.004C24.6337 87.1232 23.51 87.2604 22.4079 87.4084C22.7367 84.0938 23.0583 80.7791 23.3763 77.4644C23.5316 75.854 23.6798 74.2436 23.8279 72.6332C23.9291 71.5283 24.0303 70.427 24.1351 69.3221C24.3483 67.0437 24.5651 64.7617 24.7855 62.4833L24.9119 61.1581C25.0782 59.4141 25.2444 57.6701 25.4178 55.9225C25.5298 54.7851 25.6455 53.6477 25.7611 52.5103C25.9092 51.0299 26.061 49.5531 26.2019 48.0727C26.3212 46.845 26.4332 45.6174 26.5452 44.3897C26.6355 43.4184 26.7222 42.4471 26.8162 41.4758C27.033 39.1794 27.257 36.8829 27.4847 34.5829C27.5461 33.9437 27.6147 33.301 27.6798 32.6619C27.7448 32.0445 27.8062 31.427 27.8677 30.8132C27.8821 30.8313 27.8966 30.8493 27.9074 30.871C28.4747 31.6473 29.0601 32.4489 29.6671 33.2252C30.126 33.8138 30.7475 34.1387 31.4196 34.1423C31.4232 34.1423 31.4268 34.1423 31.4341 34.1423C32.229 34.1423 33.0203 33.7018 33.6563 32.9038C34.4043 31.9687 35.1197 30.9974 35.8135 30.0586C35.8568 30.0008 35.9002 29.9394 35.9436 29.8816C35.9436 29.8925 35.9399 29.9033 35.9399 29.9141C35.911 30.2824 35.8821 30.6507 35.8568 31.019C35.5931 35.1209 35.3293 39.2191 35.0763 43.3209C35.0149 44.2994 34.9607 45.2743 34.9065 46.2529C34.8415 47.4047 34.7764 48.5529 34.7042 49.7048C34.6464 50.6075 34.5777 51.5138 34.5127 52.4201C34.444 53.3589 34.3717 54.2941 34.3139 55.2329C34.2561 56.1753 34.2055 57.1177 34.1585 58.0601C34.1152 58.887 34.0718 59.7138 34.0249 60.5371C33.9562 61.6709 33.8803 62.801 33.8044 63.9348C33.7466 64.7725 33.6924 65.6102 33.6382 66.4479C33.425 69.8168 33.2082 73.1856 33.0059 76.5508C32.9011 78.2985 32.8035 80.0497 32.7096 81.7973C32.659 82.7072 32.6084 83.6208 32.5578 84.5307C32.5289 84.8629 32.5072 85.1987 32.4856 85.5345ZM33.3239 26.2348C33.0167 26.8125 33.0709 26.6825 32.0989 28.4337C31.911 28.3254 31.2895 27.4046 31.0258 27.0363C30.8053 26.7294 30.4151 26.1228 30.1622 25.6606C31.1125 25.5234 33.0745 25.1335 33.9128 25.0288C33.855 25.1985 33.6563 25.6173 33.3239 26.2348Z" fill="#0DB899"/>
</svg>
